{"title":"Mother, May I Sleep with Danger? (2016)","uid":14995233,"size":1239685221,"categoryP":"video","categoryS":"movies","magnet":"?xt=urn:btih:e68e7b4d75ca9fb485d58f5dd1d8bf2aaf979375&amp;dn=Mother%2C+May+I+Sleep+with+Danger%3F+%282016%29&amp;tr=udp%3A%2F%2Ftracker.leechers-paradise.org%3A6969&amp;tr=udp%3A%2F%2Fzer0day.ch%3A1337&amp;tr=udp%3A%2F%2Fopen.demonii.com%3A1337&amp;tr=udp%3A%2F%2Ftracker.coppersurfer.tk%3A6969&amp;tr=udp%3A%2F%2Fexodus.desync.com%3A6969","seeders":0,"leechers":1,"uploader":null,"files":2,"time":1466349850,"description":"http://www.imdb.com/title/tt5480528/\r\n\r\nMother, May I Sleep with Danger? (2016)\r\n\r\n\r\nA college girl introduces her mother to her girlfriend... who happens to be a vampire.\r\nDirector: Melanie Aitkenhead\r\nWriters: Amber Coney (script), James Franco (story by)\r\nStars: James Franco, Tori Spelling, Emily Meade\r\n\r\n\r\n\r\nGeneral\r\n\r\nFormat                         : MPEG-4\r\nFormat profile                 : Base Media\r\nCodec ID                       : isom (isom/iso2/avc1/mp41)\r\nFile size                      : 1.15 GiB\r\nDuration                       : 1h 25mn\r\nOverall bit rate mode          : Variable\r\nOverall bit rate               : 1 930 Kbps\r\nWriting application            : Lavf56.27.100\r\n\r\nVideo\r\nID                             : 1\r\nFormat                         : AVC\r\nFormat/Info                    : Advanced Video Codec\r\nFormat profile                 :   \r\nFormat settings, CABAC         : Yes\r\nFormat settings, ReFrames      : 4 frames\r\nFormat settings, GOP           : M=1, N=47\r\nCodec ID                       : avc1\r\nCodec ID/Info                  : Advanced Video Coding\r\nDuration                       : 1h 25mn\r\nBit rate                       : 1 797 Kbps\r\nWidth                          : 960 pixels\r\nHeight                         : 540 pixels\r\nDisplay aspect ratio           : 16:9\r\nFrame rate mode                : Variable\r\nFrame rate                     : 23.976 (24000/1001) fps\r\nMinimum frame rate             : 23.810 fps\r\nMaximum frame rate             : 24.390 fps\r\nColor space                    : YUV\r\nChroma subsampling             : 4:2:0\r\nBit depth                      : 8 bits\r\nScan type                      : Progressive\r\nBits/(Pixel*Frame)             : 0.145\r\nStream size                    : 1.08 GiB (93%)\r\nWriting library                : Zencoder Video Encoding System\r\n\r\nAudio\r\nID                             : 2\r\nFormat                         : AAC\r\nFormat/Info                    : Advanced Audio Codec\r\nFormat profile                 : LC\r\nCodec ID                       : 40\r\nDuration                       : 1h 25mn\r\nBit rate mode                  : Variable\r\nBit rate                       : 127 Kbps\r\nMaximum bit rate               : 164 Kbps\r\nChannel(s)                     : 2 channels\r\nChannel positions              : Front: L R\r\nSampling rate                  : 48.0 KHz\r\nFrame rate                     : 46.875 fps (1024 spf)\r\nCompression mode               : Lossy\r\nStream size                    : 78.1 MiB (7%)\r\nDefault                        : Yes\r\nAlternate group                : 1\r\n\r\nText\r\nID                             : 1-CC1\r\nFormat                         : EIA-608\r\nMuxing mode                    : SCTE 128 / DTVCC Transport\r\nMuxing mode, more info         : Muxed in Video #1\r\nDuration                       : 1h 25mn\r\nBit rate mode                  : Constant\r\nStream size                    : 0.00 Byte (0%)\r\nEncoded stream size            : 0.00 Byte (0%)","torrent":{"xt":"urn:btih:e68e7b4d75ca9fb485d58f5dd1d8bf2aaf979375","amp;dn":"Mother%2C+May+I+Sleep+with+Danger%3F+%282016%29","amp;tr":["udp%3A%2F%2Ftracker.leechers-paradise.org%3A6969","udp%3A%2F%2Fzer0day.ch%3A1337","udp%3A%2F%2Fopen.demonii.com%3A1337","udp%3A%2F%2Ftracker.coppersurfer.tk%3A6969","udp%3A%2F%2Fexodus.desync.com%3A6969"],"infoHash":"e68e7b4d75ca9fb485d58f5dd1d8bf2aaf979375","infoHashBuffer":{"type":"Buffer","data":[230,142,123,77,117,202,159,180,133,213,143,93,209,216,191,42,175,151,147,117]},"announce":[],"urlList":[]}}